<svg xmlns="http://www.w3.org/2000/svg" viewBox="0 0 82.11 52.84"><defs><style>.cls-1{fill:#fff;}.cls-2{fill:#59cfcf;}</style></defs><title>Asset 2</title><g id="Layer_2" data-name="Layer 2"><g id="Layer_1-2" data-name="Layer 1"><path class="cls-1" d="M38.82,16.82A2,2,0,0,0,37.16,18l-14,32a2,2,0,0,0,3.69,1.59l14-32a2,2,0,0,0-2-2.81Zm-20.91,2a2,2,0,0,0-1.22.5l-16,14a2,2,0,0,0,0,3l16,14a2,2,0,0,0,2.64-3h0L5,34.85l14.28-12.5a2,2,0,0,0-1.41-3.53Zm27.94,0a2,2,0,0,0-1.16,3.53L59,34.85,44.69,47.32a2,2,0,1,0,2.61,3h0l16-14a2,2,0,0,0,0-3l-16-14A2,2,0,0,0,45.85,18.82Z" transform="translate(0 0)"/><path class="cls-2" d="M81.79.3A1.26,1.26,0,0,0,80.49.09L48.31,13.35a1,1,0,0,0,.18,2l13.65,3.17,3.41,12.66a1.16,1.16,0,0,0,1,.81h.09a1.17,1.17,0,0,0,1.06-.64L82,1.5A1.07,1.07,0,0,0,81.79.3ZM66.94,27.64,64.17,17.37a1.06,1.06,0,0,0-.83-.77L52.27,14,78.7,3.17Z" transform="translate(0 0)"/></g></g></svg>