<svg xmlns="http://www.w3.org/2000/svg" viewBox="0 0 139.24 34"><path d="M37.81 22h-.93V9.26h.93zM41.31 22v-9h.48a.25.25 0 0 1 .26.23l.08 1.3a4.76 4.76 0 0 1 1.2-1.21 2.58 2.58 0 0 1 1.52-.46 2.18 2.18 0 0 1 1.57.57 3 3 0 0 1 .79 1.57 3.11 3.11 0 0 1 .46-.95 2.84 2.84 0 0 1 .67-.67 2.48 2.48 0 0 1 .82-.39 3.15 3.15 0 0 1 .92-.13 3 3 0 0 1 1.19.22 2.37 2.37 0 0 1 .9.65 3 3 0 0 1 .57 1.07 4.86 4.86 0 0 1 .2 1.44V22h-.86v-5.72a3.15 3.15 0 0 0-.56-2 2 2 0 0 0-1.62-.69 2.26 2.26 0 0 0-.9.18 2.14 2.14 0 0 0-.76.5 2.49 2.49 0 0 0-.52.85 3.19 3.19 0 0 0-.19 1.17V22h-.87v-5.72a3.34 3.34 0 0 0-.51-2 1.79 1.79 0 0 0-1.52-.7 2.29 2.29 0 0 0-1.35.44 4.13 4.13 0 0 0-1.11 1.19V22zM55.94 25.17V13h.48a.24.24 0 0 1 .26.23l.08 1.39a4.75 4.75 0 0 1 1.4-1.29 3.4 3.4 0 0 1 1.84-.44A3.11 3.11 0 0 1 62.52 14a5.39 5.39 0 0 1 .92 3.42 6.39 6.39 0 0 1-.26 1.84 4.44 4.44 0 0 1-.75 1.47 3.59 3.59 0 0 1-1.23 1 3.7 3.7 0 0 1-1.67.36 3.37 3.37 0 0 1-1.53-.31 3.07 3.07 0 0 1-1.15-1v4.37zm3.76-11.59a3 3 0 0 0-1.61.46 4.58 4.58 0 0 0-1.28 1.28v4.73a2.79 2.79 0 0 0 2.56 1.39 3.06 3.06 0 0 0 1.39-.29 2.68 2.68 0 0 0 1-.81 3.7 3.7 0 0 0 .61-1.26 6.3 6.3 0 0 0 .2-1.62 4.72 4.72 0 0 0-.74-2.93 2.53 2.53 0 0 0-2.13-.95zM71.52 22a.3.3 0 0 1-.33-.25l-.13-1.14c-.24.23-.49.45-.73.64a3.92 3.92 0 0 1-.76.49 4 4 0 0 1-.86.3 4.46 4.46 0 0 1-1 .1 3 3 0 0 1-.9-.13 2.32 2.32 0 0 1-.77-.42 2.06 2.06 0 0 1-.54-.71 2.55 2.55 0 0 1-.2-1.05 1.81 1.81 0 0 1 .33-1 2.56 2.56 0 0 1 1-.85 6.78 6.78 0 0 1 1.78-.57A15.3 15.3 0 0 1 71 17.1v-.93a3 3 0 0 0-.54-1.91 1.92 1.92 0 0 0-1.59-.68 3.2 3.2 0 0 0-1.1.18 4.23 4.23 0 0 0-.77.4 4.14 4.14 0 0 0-.51.4.56.56 0 0 1-.34.18.28.28 0 0 1-.16-.05l-.11-.11-.15-.27a5.34 5.34 0 0 1 1.48-1.06 4.09 4.09 0 0 1 1.79-.36 3.26 3.26 0 0 1 1.26.23 2.29 2.29 0 0 1 .9.66 2.79 2.79 0 0 1 .53 1 4.81 4.81 0 0 1 .18 1.36V22zm-3.6-.48a3.62 3.62 0 0 0 1-.11 3.58 3.58 0 0 0 .81-.31 4.19 4.19 0 0 0 .7-.49c.21-.18.43-.38.64-.6v-2.33a16.28 16.28 0 0 0-2.21.19 6.37 6.37 0 0 0-1.52.43 2.35 2.35 0 0 0-.89.64 1.44 1.44 0 0 0-.28.85 1.87 1.87 0 0 0 .15.78 1.47 1.47 0 0 0 .4.54 1.44 1.44 0 0 0 .57.31 2.13 2.13 0 0 0 .63.1zM80.89 14.24l-.08.08a.21.21 0 0 1-.12 0 .44.44 0 0 1-.24-.12A3.65 3.65 0 0 0 80 14a4.33 4.33 0 0 0-.66-.26 3.23 3.23 0 0 0-.95-.12 3.32 3.32 0 0 0-1.37.27 2.7 2.7 0 0 0-1 .79 3.38 3.38 0 0 0-.63 1.24 6.48 6.48 0 0 0 0 3.31 3.57 3.57 0 0 0 .63 1.23 2.6 2.6 0 0 0 1 .76 3 3 0 0 0 1.28.26 3.35 3.35 0 0 0 1.08-.15 3.48 3.48 0 0 0 .72-.33 3.26 3.26 0 0 0 .45-.34.41.41 0 0 1 .27-.15.23.23 0 0 1 .18.09l.22.29a2.48 2.48 0 0 1-.52.5 3.77 3.77 0 0 1-.71.41 4.54 4.54 0 0 1-.86.26 4.37 4.37 0 0 1-1 .1 4 4 0 0 1-1.56-.31 3.37 3.37 0 0 1-1.21-.9 4.32 4.32 0 0 1-.8-1.45 6.14 6.14 0 0 1-.28-1.94 6.08 6.08 0 0 1 .27-1.87 4.11 4.11 0 0 1 .79-1.46 3.46 3.46 0 0 1 1.28-.95 4.06 4.06 0 0 1 1.72-.34 4 4 0 0 1 1.55.28 3.92 3.92 0 0 1 1.18.76zM86 22.14a1.91 1.91 0 0 1-1.42-.5 2.11 2.11 0 0 1-.58-1.56V14h-1.26a.25.25 0 0 1-.17-.05.2.2 0 0 1-.06-.15v-.34l1.53-.1.22-3.21a.27.27 0 0 1 .07-.14.17.17 0 0 1 .15-.07h.41v3.42h2.82V14h-2.82v6a2 2 0 0 0 .09.63 1.12 1.12 0 0 0 .26.44 1 1 0 0 0 .39.25 1.33 1.33 0 0 0 .49.08 1.57 1.57 0 0 0 .56-.09 2.48 2.48 0 0 0 .4-.21 1.36 1.36 0 0 0 .28-.21.31.31 0 0 1 .17-.09.2.2 0 0 1 .15.09l.23.38a2.5 2.5 0 0 1-.87.6 2.57 2.57 0 0 1-1.04.27zM104.43 19.86a.23.23 0 0 1 .16.06l.36.39a6.88 6.88 0 0 1-.86.76 5.05 5.05 0 0 1-1 .57 5.52 5.52 0 0 1-1.21.37 7.34 7.34 0 0 1-1.46.13 6.14 6.14 0 0 1-2.42-.46 5.52 5.52 0 0 1-1.9-1.31 6.14 6.14 0 0 1-1.23-2.06 7.85 7.85 0 0 1-.43-2.68 7.48 7.48 0 0 1 .43-2.63 6 6 0 0 1 1.26-2.05 5.62 5.62 0 0 1 1.94-1.34 6.55 6.55 0 0 1 2.5-.47 5.94 5.94 0 0 1 4.15 1.55l-.28.4a.22.22 0 0 1-.22.11.67.67 0 0 1-.35-.2 4.83 4.83 0 0 0-.68-.43 5.49 5.49 0 0 0-1.07-.44 5.9 5.9 0 0 0-3.66.2 4.59 4.59 0 0 0-1.64 1.13 5.3 5.3 0 0 0-1.08 1.8 6.93 6.93 0 0 0-.39 2.39 6.73 6.73 0 0 0 .4 2.41 5.19 5.19 0 0 0 1.07 1.8A4.81 4.81 0 0 0 98.44 21a5.14 5.14 0 0 0 2 .39 7.5 7.5 0 0 0 1.22-.09 4.85 4.85 0 0 0 1-.27 4.78 4.78 0 0 0 .84-.44 6 6 0 0 0 .76-.61l.09-.06zM110.7 12.9a4.29 4.29 0 0 1 1.72.33 3.44 3.44 0 0 1 1.28.93 4.08 4.08 0 0 1 .8 1.45 6.33 6.33 0 0 1 .28 1.91 6.27 6.27 0 0 1-.28 1.9 4.17 4.17 0 0 1-.8 1.45 3.31 3.31 0 0 1-1.28.92 4.29 4.29 0 0 1-1.72.33 4.34 4.34 0 0 1-1.73-.33 3.47 3.47 0 0 1-1.28-.92 4.17 4.17 0 0 1-.8-1.45 6 6 0 0 1-.28-1.9 6 6 0 0 1 .28-1.91 4.08 4.08 0 0 1 .8-1.45 3.61 3.61 0 0 1 1.28-.93 4.34 4.34 0 0 1 1.73-.33zm0 8.54a3.4 3.4 0 0 0 1.4-.27 2.77 2.77 0 0 0 1-.79 3.67 3.67 0 0 0 .6-1.24 6.21 6.21 0 0 0 .19-1.62 6.21 6.21 0 0 0-.19-1.62 3.82 3.82 0 0 0-.6-1.25 2.66 2.66 0 0 0-1-.79 3.64 3.64 0 0 0-2.8 0 2.66 2.66 0 0 0-1 .79 3.46 3.46 0 0 0-.6 1.25 6.35 6.35 0 0 0 0 3.24 3.34 3.34 0 0 0 .6 1.24 2.77 2.77 0 0 0 1 .79 3.36 3.36 0 0 0 1.4.27zM117.34 22v-9h.46a.34.34 0 0 1 .22.07.42.42 0 0 1 .08.21l.06 1.89a5.26 5.26 0 0 1 .47-1 3.16 3.16 0 0 1 .61-.73 2.52 2.52 0 0 1 .78-.45 2.59 2.59 0 0 1 1-.16 3.41 3.41 0 0 1 .55 0 1.21 1.21 0 0 1 .47.18l-.07.59a.18.18 0 0 1-.17.15 1.63 1.63 0 0 1-.33-.07 2.29 2.29 0 0 0-.58-.06 2.45 2.45 0 0 0-.93.16 2.3 2.3 0 0 0-.72.47 3.1 3.1 0 0 0-.55.78 8.28 8.28 0 0 0-.44 1.06V22zM123.85 25.17V13h.47a.24.24 0 0 1 .26.23l.09 1.39a4.72 4.72 0 0 1 1.39-1.29 3.43 3.43 0 0 1 1.79-.48 3.09 3.09 0 0 1 2.57 1.15 5.33 5.33 0 0 1 .92 3.42 6.39 6.39 0 0 1-.25 1.84 4.46 4.46 0 0 1-.76 1.47 3.56 3.56 0 0 1-1.22 1 3.73 3.73 0 0 1-1.67.36 3.41 3.41 0 0 1-1.58-.34 3.23 3.23 0 0 1-1.15-1v4.37zm3.76-11.59A3 3 0 0 0 126 14a4.75 4.75 0 0 0-1.29 1.28v4.73a3 3 0 0 0 1.14 1.08 3.1 3.1 0 0 0 1.43.31 3 3 0 0 0 1.38-.29 2.72 2.72 0 0 0 1-.81 3.88 3.88 0 0 0 .6-1.26 6.3 6.3 0 0 0 .2-1.62 4.66 4.66 0 0 0-.74-2.93 2.51 2.51 0 0 0-2.11-.91zM138.84 14.15a.23.23 0 0 1-.21.13.51.51 0 0 1-.25-.11 3.77 3.77 0 0 0-.41-.26 3.93 3.93 0 0 0-.63-.25 3.46 3.46 0 0 0-.92-.11 2.81 2.81 0 0 0-.89.14 2.33 2.33 0 0 0-.68.37 1.78 1.78 0 0 0-.44.55 1.44 1.44 0 0 0-.15.65 1.07 1.07 0 0 0 .22.7 1.76 1.76 0 0 0 .56.48 4.58 4.58 0 0 0 .8.34l.91.29c.31.09.61.2.91.32a3.21 3.21 0 0 1 .8.43 2.14 2.14 0 0 1 .56.64 1.77 1.77 0 0 1 .22.92 2.82 2.82 0 0 1-.21 1.09 2.33 2.33 0 0 1-.61.87 2.88 2.88 0 0 1-1 .59 4 4 0 0 1-1.34.21 4 4 0 0 1-1.63-.3 4.39 4.39 0 0 1-1.23-.79l.2-.3a.55.55 0 0 1 .1-.11.38.38 0 0 1 .16 0 .45.45 0 0 1 .29.14 4 4 0 0 0 .44.31 4.54 4.54 0 0 0 .69.31 3 3 0 0 0 1 .14 3 3 0 0 0 1-.15 2.12 2.12 0 0 0 .72-.43 1.79 1.79 0 0 0 .44-.64 2 2 0 0 0 .15-.76 1.26 1.26 0 0 0-.22-.75 1.77 1.77 0 0 0-.57-.51 4.81 4.81 0 0 0-.79-.35l-.92-.29c-.31-.09-.61-.2-.91-.31a3.4 3.4 0 0 1-.8-.43 2.14 2.14 0 0 1-.56-.64 1.78 1.78 0 0 1-.22-.93 2.13 2.13 0 0 1 .21-.92 2.18 2.18 0 0 1 .59-.77 2.8 2.8 0 0 1 .93-.53 3.65 3.65 0 0 1 1.23-.2 4.39 4.39 0 0 1 1.46.23 3.45 3.45 0 0 1 1.15.73z" fill="#000222"/><path d="M0 0v28l13.5 6L27 28V0zm21 25l-7.5-5L6 25v-3l7.5-5 7.5 5zm0-6l-7.5-5L6 19v-3l7.5-5 7.5 5zm0-6l-7.5-5L6 13v-3l7.5-5 7.5 5z" fill="#0061d5"/></svg>