<svg xmlns="http://www.w3.org/2000/svg" viewBox="0 0 2009.5 1500"><defs><style>.cls-1{fill:#151f27;}.cls-17,.cls-2{opacity:0.5;}.cls-3{fill:#5fc9cf;}.cls-4{opacity:0.1;}.cls-5{fill:#fbfbfb;}.cls-6{fill:#151f26;}.cls-7{fill:#243638;}.cls-8{fill:#0a1516;}.cls-9{fill:#ed412f;}.cls-10{fill:#ffa310;}.cls-11{fill:#71dd2a;}.cls-12,.cls-17{fill:#fff;}.cls-13{fill:#fc627a;}.cls-13,.cls-14{opacity:0.55;}.cls-14{fill:#c3d1d9;}.cls-15{fill:#002947;}.cls-16{fill:#bec6c6;}.cls-17{stroke:#000;}.cls-18{fill:#f40f36;}.cls-19{fill:#e5da0a;}.cls-20{fill:#bd07dd;}</style></defs><title>Artboard 1</title><g id="Background"><rect class="cls-1" y="0.03" width="2009.55" height="1500"/><rect class="cls-1" x="1261.5" y="276" width="198" height="18" rx="9" ry="9"/></g><g id="Browser"><g class="cls-2"><path class="cls-3" d="M136.47,327.92v909.54a22,22,0,0,0,21.86,21.91H1772.09a22,22,0,0,0,21.86-21.91V327.92Z"/><path class="cls-3" d="M1772.09,241.1H158.33c-12,0-21.86,8.72-21.86,19.39v67.44H1794V260.48C1794,249.82,1784.12,241.1,1772.09,241.1Z"/><ellipse class="cls-3" cx="185.41" cy="284.96" rx="15.39" ry="13.93"/><ellipse class="cls-3" cx="185.41" cy="284.96" rx="13.02" ry="11.79"/><ellipse class="cls-3" cx="185.41" cy="284.96" rx="10.66" ry="9.65"/><ellipse class="cls-3" cx="229.31" cy="284.96" rx="15.39" ry="13.93"/><ellipse class="cls-3" cx="229.31" cy="284.96" rx="13.02" ry="11.79"/><ellipse class="cls-3" cx="229.31" cy="284.96" rx="10.66" ry="9.65"/><ellipse class="cls-3" cx="273.21" cy="284.96" rx="15.39" ry="13.93"/><ellipse class="cls-3" cx="273.21" cy="284.96" rx="13.02" ry="11.79"/><ellipse class="cls-3" cx="273.21" cy="284.96" rx="10.66" ry="9.65"/><polygon class="cls-3" points="1765.16 270.2 1765.16 285.1 1758.84 279.37 1751.24 286.25 1747.44 282.81 1755.04 275.93 1748.71 270.2 1765.16 270.2"/><polygon class="cls-3" points="1747.36 289.76 1739.77 296.63 1746.1 302.36 1729.65 302.36 1729.65 287.46 1735.97 293.19 1743.57 286.32 1747.36 289.76"/><g class="cls-2"><rect class="cls-3" x="136.47" y="327.91" width="1657.49" height="85.75"/></g><g class="cls-4"><path class="cls-3" d="M1687.43,385.93c0,5.8-5.17,10.55-11.49,10.55H415.54c-6.32,0-11.48-4.75-11.48-10.55V355.59c0-5.8,5.17-10.55,11.48-10.55h1260.4c6.32,0,11.49,4.75,11.49,10.55Z"/></g><path class="cls-3" d="M1670.76,367.68a6.14,6.14,0,0,1-2.23,4.69h0l-7.4,6.89c-.74.69-1.48,1.38-2.22,1.38s-1.48-.69-2.22-1.38l-7.4-6.89h0a6.13,6.13,0,0,1-2.23-4.69,6.58,6.58,0,0,1,6.8-6.33,7.15,7.15,0,0,0,10.07,0,6.58,6.58,0,0,1,6.8,6.33Z"/><polygon class="cls-3" points="374.26 373.69 368.49 368.44 368.49 360.58 364.64 360.58 364.64 364.95 358.87 359.71 343.48 373.69 343.48 374.56 347.32 374.56 347.32 383.29 356.94 383.29 356.94 378.05 360.79 378.05 360.79 383.29 370.41 383.29 370.41 374.56 374.26 374.56 374.26 373.69"/><path class="cls-3" d="M315.18,368.55h-9.77l3.65-3.3a10.5,10.5,0,0,0-13.81,0,8.26,8.26,0,0,0,0,12.5,10.5,10.5,0,0,0,13.81,0c.15-.14.3-.28.45-.43l2.45,1.94a13.61,13.61,0,0,1-9.8,4c-7.19,0-13-5.28-13-11.79s5.83-11.79,13-11.79a13.69,13.69,0,0,1,9.21,3.45l3.82-3.45Z"/><polygon class="cls-3" points="259.17 371.5 244.37 358.1 244.37 366.48 229.57 366.48 229.57 376.53 244.37 376.53 244.37 384.9 259.17 371.5"/><polygon class="cls-3" points="165.43 371.5 180.23 384.9 180.23 376.53 195.03 376.53 195.03 366.48 180.23 366.48 180.23 358.1 165.43 371.5"/><path class="cls-3" d="M438.73,375.74l0,0,.4-.44,0,0,0-.06a9.12,9.12,0,0,0,2.17-5.89,9.29,9.29,0,0,0-3.17-6.93,11.65,11.65,0,0,0-15.32,0,9.16,9.16,0,0,0,0,13.87,11.34,11.34,0,0,0,7.66,2.87,11.62,11.62,0,0,0,6.62-2l.48-.36,0,0,0,0,.5-.42c.15-.14.3-.28.46-.44Zm-2.17-1.05a9.08,9.08,0,0,1-11.95,0,7.15,7.15,0,0,1,0-10.82,9.09,9.09,0,0,1,12,0,7.15,7.15,0,0,1,0,10.82Zm9.22,6-.32-.29h0l-3.5-3.17a.08.08,0,0,0-.06,0,.08.08,0,0,0-.06,0l-.12.11-1.65,1.5-.7.63a.07.07,0,0,0,0,.05.06.06,0,0,0,0,0l3.82,3.46.06,0,0,0,1.24-1.12,1.24-1.12a.06.06,0,0,0,0,0A.06.06,0,0,0,445.77,380.7Zm-5.31-3.64-.81-.73-.1.11h0l0,0c-.17.17-.33.32-.48.46l-.51.43h0l-.14.11.81.73.64-.58Z"/><rect class="cls-3" x="1725.71" y="355.96" width="29.6" height="5.38"/><rect class="cls-3" x="1725.71" y="366.66" width="29.6" height="5.38"/><rect class="cls-3" x="1725.71" y="377.37" width="29.6" height="5.38"/></g><path class="cls-5" d="M54.81,232.74v912.14a22,22,0,0,0,21.86,22H1690.43a22,22,0,0,0,21.86-22V232.74Z"/><path class="cls-6" d="M1170.86,232.74v912.14c0,12.09,3.21,22,7.14,22h527.15c3.93,0,7.14-9.89,7.14-22V232.74Z"/><path class="cls-7" d="M1690.43,42.15H76.67A21.7,21.7,0,0,0,54.81,63.56V138H1712.3V63.56A21.7,21.7,0,0,0,1690.43,42.15Z"/><circle class="cls-8" cx="103.74" cy="90.59" r="15.39"/><circle class="cls-5" cx="103.74" cy="90.59" r="13.02"/><circle class="cls-9" cx="103.74" cy="90.59" r="10.66"/><circle class="cls-8" cx="147.65" cy="90.59" r="15.39"/><circle class="cls-5" cx="147.65" cy="90.59" r="13.02"/><circle class="cls-10" cx="147.65" cy="90.59" r="10.66"/><circle class="cls-8" cx="191.55" cy="90.59" r="15.39"/><circle class="cls-5" cx="191.55" cy="90.59" r="13.02"/><circle class="cls-11" cx="191.55" cy="90.59" r="10.66"/><polygon class="cls-5" points="1683.5 74.3 1683.5 90.75 1677.17 84.42 1669.58 92.02 1665.78 88.22 1673.38 80.62 1667.05 74.3 1683.5 74.3"/><polygon class="cls-5" points="1665.7 95.89 1658.11 103.49 1664.44 109.81 1647.98 109.81 1647.98 93.36 1654.31 99.69 1661.9 92.09 1665.7 95.89"/><g class="cls-2"><rect class="cls-12" x="54.81" y="138.03" width="1657.49" height="94.71"/></g><g class="cls-4"><path class="cls-7" d="M1605.76,202.12a11.61,11.61,0,0,1-11.49,11.66H333.88a11.61,11.61,0,0,1-11.48-11.66V168.6a11.61,11.61,0,0,1,11.48-11.66h1260.4a11.61,11.61,0,0,1,11.49,11.66Z"/></g><path class="cls-12" d="M1589.1,182a7.07,7.07,0,0,1-2.23,5.18h0l-7.4,7.61c-.74.76-1.48,1.52-2.22,1.52s-1.48-.76-2.22-1.52l-7.4-7.61h0a7.06,7.06,0,0,1-2.23-5.18,6.9,6.9,0,0,1,6.8-7,6.68,6.68,0,0,0,10.07,0,6.9,6.9,0,0,1,6.8,7Z"/><polygon class="cls-12" points="292.6 188.59 286.82 182.81 286.82 174.12 282.98 174.12 282.98 178.95 277.2 173.16 261.81 188.59 261.81 189.56 265.66 189.56 265.66 199.21 275.28 199.21 275.28 193.42 279.13 193.42 279.13 199.21 288.75 199.21 288.75 189.56 292.6 189.56 292.6 188.59"/><path class="cls-12" d="M233.52,182.93h-9.77l3.65-3.65a9.77,9.77,0,1,0,0,13.81c.15-.15.3-.31.45-.47l2.45,2.14a13,13,0,1,1-.59-17.78l3.82-3.82Z"/><polygon class="cls-12" points="177.5 186.18 162.71 171.38 162.71 180.63 147.91 180.63 147.91 191.73 162.71 191.73 162.71 200.98 177.5 186.18"/><polygon class="cls-12" points="83.77 186.18 98.57 200.98 98.57 191.73 113.36 191.73 113.36 180.63 98.57 180.63 98.57 171.38 83.77 186.18"/><path class="cls-12" d="M357.06,190.86l0,0,.4-.49,0,0,0-.07a10.83,10.83,0,1,0-8.66,4.33,10.87,10.87,0,0,0,6.62-2.26l.48-.39,0,0,0,0c.19-.17.35-.32.5-.47s.3-.31.46-.49Zm-2.17-1.16a8.45,8.45,0,1,1,2.47-6A8.39,8.39,0,0,1,354.89,189.7Zm9.22,6.64-.32-.32h0l-3.5-3.51a.08.08,0,0,0-.06,0,.08.08,0,0,0-.06,0l-.12.12-1.65,1.66-.7.7a.08.08,0,0,0,0,.06.07.07,0,0,0,0,.05l3.82,3.82.06,0,0,0,1.24-1.24,1.24-1.24a.07.07,0,0,0,0-.05A.07.07,0,0,0,364.11,196.34Zm-5.31-4-.81-.81-.1.12h0l0,0c-.17.19-.33.36-.48.51s-.31.3-.51.48h0l0,0-.14.12.81.81.64-.65Z"/><rect class="cls-12" x="1644.05" y="169.01" width="29.6" height="5.94"/><rect class="cls-12" x="1644.05" y="180.84" width="29.6" height="5.94"/><rect class="cls-12" x="1644.05" y="192.67" width="29.6" height="5.94"/><rect class="cls-12" x="322.4" y="232.74" width="848.47" height="934.11"/><rect class="cls-13" x="89.03" y="285.99" width="183.72" height="26.02" rx="12" ry="12"/><rect class="cls-14" x="99.69" y="339.36" width="183.72" height="24" rx="12" ry="12"/><rect class="cls-14" x="99.69" y="389.25" width="183.72" height="24" rx="12" ry="12"/><rect class="cls-14" x="99.69" y="446.95" width="183.72" height="24" rx="12" ry="12"/><rect class="cls-14" x="99.69" y="501.77" width="183.72" height="24" rx="12" ry="12"/><rect class="cls-14" x="99.69" y="554.24" width="183.72" height="24" rx="12" ry="12"/><rect class="cls-14" x="102.03" y="611.94" width="183.72" height="24" rx="12" ry="12"/><rect class="cls-14" x="99.69" y="821.12" width="183.72" height="24" rx="12" ry="12"/><rect class="cls-14" x="99.69" y="867.12" width="183.72" height="24" rx="12" ry="12"/><rect class="cls-14" x="103.06" y="915.12" width="183.72" height="24" rx="12" ry="12"/><rect class="cls-14" x="102.03" y="967.12" width="183.72" height="24" rx="12" ry="12"/><rect class="cls-13" x="89.03" y="772.28" width="183.72" height="26.02" rx="12" ry="12"/><rect class="cls-15" x="374.26" y="289.27" width="352" height="36.16" rx="12" ry="12"/><rect class="cls-3" x="384.28" y="433.25" width="184.08" height="44.1" rx="12" ry="12"/><rect class="cls-16" x="587.34" y="640.64" width="297.35" height="31.76" rx="12" ry="12"/><path d="M986,354.93l-601.74,2"/><path d="M986,348.93l-234.9.8-234.9.8L384.28,351c-7.72,0-7.74,12,0,12l234.9-.8,234.9-.8L986,360.93c7.72,0,7.74-12,0-12Z"/><rect class="cls-17" x="433.9" y="632.3" width="84.83" height="47.88"/><path class="cls-16" d="M951.49,662.52c7.72,0,7.73-12,0-12s-7.73,12,0,12Z"/><path class="cls-16" d="M969.49,662.52c7.72,0,7.73-12,0-12s-7.73,12,0,12Z"/><path class="cls-16" d="M988.51,662c7.72,0,7.73-12,0-12s-7.73,12,0,12Z"/><rect class="cls-16" x="587.34" y="710.49" width="297.35" height="31.76" rx="12" ry="12"/><rect class="cls-17" x="433.9" y="702.15" width="84.83" height="47.88"/><path class="cls-16" d="M951.49,732.37c7.72,0,7.73-12,0-12s-7.73,12,0,12Z"/><path class="cls-16" d="M969.49,732.37c7.72,0,7.73-12,0-12s-7.73,12,0,12Z"/><path class="cls-16" d="M988.51,731.81c7.72,0,7.73-12,0-12s-7.73,12,0,12Z"/><rect class="cls-16" x="587.34" y="782.7" width="297.35" height="31.76" rx="12" ry="12"/><rect class="cls-17" x="433.9" y="774.36" width="84.83" height="47.88"/><path class="cls-16" d="M951.49,804.58c7.72,0,7.73-12,0-12s-7.73,12,0,12Z"/><path class="cls-16" d="M969.49,804.58c7.72,0,7.73-12,0-12s-7.73,12,0,12Z"/><path class="cls-16" d="M988.51,804c7.72,0,7.73-12,0-12s-7.73,12,0,12Z"/><rect class="cls-16" x="586.2" y="851.52" width="297.35" height="31.76" rx="12" ry="12"/><rect class="cls-17" x="432.77" y="843.18" width="84.83" height="47.88"/><path class="cls-16" d="M950.36,873.4c7.72,0,7.73-12,0-12s-7.73,12,0,12Z"/><path class="cls-16" d="M968.36,873.4c7.72,0,7.73-12,0-12s-7.73,12,0,12Z"/><path class="cls-16" d="M987.37,872.83c7.72,0,7.73-12,0-12s-7.73,12,0,12Z"/><rect class="cls-16" x="586.2" y="923.52" width="297.35" height="31.76" rx="12" ry="12"/><rect class="cls-17" x="432.77" y="915.18" width="84.83" height="47.88"/><path class="cls-16" d="M950.36,945.4c7.72,0,7.73-12,0-12s-7.73,12,0,12Z"/><path class="cls-16" d="M968.36,945.4c7.72,0,7.73-12,0-12s-7.73,12,0,12Z"/><path class="cls-16" d="M987.37,944.83c7.72,0,7.73-12,0-12s-7.73,12,0,12Z"/><circle class="cls-12" cx="1233.17" cy="295.33" r="10.33"/><circle class="cls-12" cx="1234.5" cy="328.67" r="10.33"/><circle class="cls-12" cx="1235.83" cy="364.67" r="10.33"/></g><g id="Google"><rect class="cls-18" x="1306.5" y="285" width="99" height="18" rx="9" ry="9"/><rect class="cls-19" x="1306.5" y="321" width="252" height="18" rx="9" ry="9"/><rect class="cls-20" x="1306.5" y="357" width="252" height="18" rx="9" ry="9"/><g id="a"><path class="cls-12" d="M1241.5,486.27h-2.59q-16.43,0-16.43,10.59v13.43q0,4.34-5.48,5l-1.63.45v5.88l.67.08.44.08a3.83,3.83,0,0,1,.52.08,7.81,7.81,0,0,1,4.29,1.58,4.94,4.94,0,0,1,1.18,3.69V539.7q0,6,4.14,8.76t12.87,2.72h4v-5.72h-3.11q-4.22,0-5.48-.81t-1.18-3.61l-.07-14.12a7.68,7.68,0,0,0-1.18-4.59,12.71,12.71,0,0,0-4.37-3.49l2.59-1.46,1.7-1.74,1-2.15.22-15.54q0-3.73,1.11-4.71t5.55-1h3.18v-5.64A4.74,4.74,0,0,0,1241.5,486.27Z"/></g><g id="a-2" data-name="a"><path class="cls-12" d="M1631.44,1095.23H1634q16.43,0,16.43-10.59v-13.43q0-4.34,5.48-5l1.63-.45v-5.88l-.67-.08-.44-.08a3.83,3.83,0,0,1-.52-.08,7.81,7.81,0,0,1-4.29-1.58,4.94,4.94,0,0,1-1.18-3.69v-12.62q0-6-4.14-8.76t-12.87-2.72h-4V1036h3.11q4.22,0,5.48.81t1.18,3.61l.07,14.12a7.68,7.68,0,0,0,1.18,4.59,12.71,12.71,0,0,0,4.37,3.49l-2.59,1.46-1.7,1.74-1,2.15-.22,15.54q0,3.73-1.11,4.71t-5.55,1h-3.18v5.64A4.74,4.74,0,0,0,1631.44,1095.23Z"/></g></g></svg>